<svg width="1143" height="143" viewBox="0 0 1143 143" fill="none" xmlns="http://www.w3.org/2000/svg">
<line x1="44.8706" y1="59.3721" x2="1044.87" y2="59.3721" stroke="#AFA6A6" stroke-width="4"/>
<circle cx="44.5" cy="60.5" r="17.5" fill="#6B69F1"/>
<circle cx="1044.5" cy="60.5" r="17.5" fill="#AFA6A6"/>
<circle cx="544.5" cy="60.5" r="17.5" fill="#AFA6A6"/>
<circle cx="794.5" cy="60.5" r="17.5" fill="#AFA6A6"/>
<circle cx="294.5" cy="60.5" r="17.5" fill="#AFA6A6"/>
<path d="M0.772727 101.614V100.364H9.5V101.614H5.84091V112H4.43182V101.614H0.772727ZM11.4929 112V103.273H12.8338V112H11.4929ZM12.1747 101.818C11.9134 101.818 11.688 101.729 11.4986 101.551C11.313 101.373 11.2202 101.159 11.2202 100.909C11.2202 100.659 11.313 100.445 11.4986 100.267C11.688 100.089 11.9134 100 12.1747 100C12.4361 100 12.6596 100.089 12.8452 100.267C13.0346 100.445 13.1293 100.659 13.1293 100.909C13.1293 101.159 13.0346 101.373 12.8452 101.551C12.6596 101.729 12.4361 101.818 12.1747 101.818ZM15.2898 112V103.273H16.5852V104.636H16.6989C16.8807 104.17 17.1742 103.809 17.5795 103.551C17.9848 103.29 18.4716 103.159 19.0398 103.159C19.6155 103.159 20.0947 103.29 20.4773 103.551C20.8636 103.809 21.1648 104.17 21.3807 104.636H21.4716C21.6951 104.186 22.0303 103.828 22.4773 103.562C22.9242 103.294 23.4602 103.159 24.0852 103.159C24.8655 103.159 25.5038 103.403 26 103.892C26.4962 104.377 26.7443 105.133 26.7443 106.159V112H25.4034V106.159C25.4034 105.515 25.2273 105.055 24.875 104.778C24.5227 104.502 24.108 104.364 23.6307 104.364C23.017 104.364 22.5417 104.549 22.2045 104.92C21.8674 105.288 21.6989 105.754 21.6989 106.318V112H20.3352V106.023C20.3352 105.527 20.1742 105.127 19.8523 104.824C19.5303 104.517 19.1155 104.364 18.608 104.364C18.2595 104.364 17.9337 104.456 17.6307 104.642C17.3314 104.828 17.089 105.085 16.9034 105.415C16.7216 105.741 16.6307 106.117 16.6307 106.545V112H15.2898ZM32.8551 112.182C32.0142 112.182 31.2888 111.996 30.679 111.625C30.0729 111.25 29.6051 110.727 29.2756 110.057C28.9498 109.383 28.7869 108.598 28.7869 107.705C28.7869 106.811 28.9498 106.023 29.2756 105.341C29.6051 104.655 30.0634 104.121 30.6506 103.739C31.2415 103.352 31.9309 103.159 32.7188 103.159C33.1733 103.159 33.6222 103.235 34.0653 103.386C34.5085 103.538 34.9119 103.784 35.2756 104.125C35.6392 104.462 35.929 104.909 36.1449 105.466C36.3608 106.023 36.4688 106.708 36.4688 107.523V108.091H29.7415V106.932H35.1051C35.1051 106.439 35.0066 106 34.8097 105.614C34.6165 105.227 34.34 104.922 33.9801 104.699C33.6241 104.475 33.2036 104.364 32.7188 104.364C32.1847 104.364 31.7225 104.496 31.3324 104.761C30.946 105.023 30.6487 105.364 30.4403 105.784C30.232 106.205 30.1278 106.655 30.1278 107.136V107.909C30.1278 108.568 30.2415 109.127 30.4688 109.585C30.6998 110.04 31.0199 110.386 31.429 110.625C31.8381 110.86 32.3134 110.977 32.8551 110.977C33.2074 110.977 33.5256 110.928 33.8097 110.83C34.0975 110.727 34.3456 110.576 34.554 110.375C34.7623 110.17 34.9233 109.917 35.0369 109.614L36.3324 109.977C36.196 110.417 35.9669 110.803 35.6449 111.136C35.3229 111.466 34.9252 111.723 34.4517 111.909C33.9782 112.091 33.446 112.182 32.8551 112.182ZM42.7585 112V110.977L47.7131 104.614V104.523H42.9176V103.273H49.4403V104.341L44.6222 110.659V110.75H49.5994V112H42.7585ZM54.9602 112.182C54.1723 112.182 53.4811 111.994 52.8864 111.619C52.2955 111.244 51.8333 110.72 51.5 110.045C51.1705 109.371 51.0057 108.583 51.0057 107.682C51.0057 106.773 51.1705 105.979 51.5 105.301C51.8333 104.623 52.2955 104.097 52.8864 103.722C53.4811 103.347 54.1723 103.159 54.9602 103.159C55.7481 103.159 56.4375 103.347 57.0284 103.722C57.6231 104.097 58.0852 104.623 58.4148 105.301C58.7481 105.979 58.9148 106.773 58.9148 107.682C58.9148 108.583 58.7481 109.371 58.4148 110.045C58.0852 110.72 57.6231 111.244 57.0284 111.619C56.4375 111.994 55.7481 112.182 54.9602 112.182ZM54.9602 110.977C55.5587 110.977 56.0511 110.824 56.4375 110.517C56.8239 110.21 57.1098 109.807 57.2955 109.307C57.4811 108.807 57.5739 108.265 57.5739 107.682C57.5739 107.098 57.4811 106.555 57.2955 106.051C57.1098 105.547 56.8239 105.14 56.4375 104.83C56.0511 104.519 55.5587 104.364 54.9602 104.364C54.3617 104.364 53.8693 104.519 53.483 104.83C53.0966 105.14 52.8106 105.547 52.625 106.051C52.4394 106.555 52.3466 107.098 52.3466 107.682C52.3466 108.265 52.4394 108.807 52.625 109.307C52.8106 109.807 53.0966 110.21 53.483 110.517C53.8693 110.824 54.3617 110.977 54.9602 110.977ZM62.3026 106.75V112H60.9616V103.273H62.2571V104.636H62.3707C62.5753 104.193 62.8859 103.837 63.3026 103.568C63.7192 103.295 64.2571 103.159 64.9162 103.159C65.5071 103.159 66.0241 103.28 66.4673 103.523C66.9105 103.761 67.2552 104.125 67.5014 104.614C67.7476 105.098 67.8707 105.712 67.8707 106.455V112H66.5298V106.545C66.5298 105.86 66.3518 105.326 65.9957 104.943C65.6397 104.557 65.151 104.364 64.5298 104.364C64.1018 104.364 63.7192 104.456 63.3821 104.642C63.0488 104.828 62.7855 105.098 62.5923 105.455C62.3991 105.811 62.3026 106.242 62.3026 106.75ZM73.9801 112.182C73.1392 112.182 72.4138 111.996 71.804 111.625C71.1979 111.25 70.7301 110.727 70.4006 110.057C70.0748 109.383 69.9119 108.598 69.9119 107.705C69.9119 106.811 70.0748 106.023 70.4006 105.341C70.7301 104.655 71.1884 104.121 71.7756 103.739C72.3665 103.352 73.0559 103.159 73.8438 103.159C74.2983 103.159 74.7472 103.235 75.1903 103.386C75.6335 103.538 76.0369 103.784 76.4006 104.125C76.7642 104.462 77.054 104.909 77.2699 105.466C77.4858 106.023 77.5938 106.708 77.5938 107.523V108.091H70.8665V106.932H76.2301C76.2301 106.439 76.1316 106 75.9347 105.614C75.7415 105.227 75.465 104.922 75.1051 104.699C74.7491 104.475 74.3286 104.364 73.8438 104.364C73.3097 104.364 72.8475 104.496 72.4574 104.761C72.071 105.023 71.7737 105.364 71.5653 105.784C71.357 106.205 71.2528 106.655 71.2528 107.136V107.909C71.2528 108.568 71.3665 109.127 71.5938 109.585C71.8248 110.04 72.1449 110.386 72.554 110.625C72.9631 110.86 73.4384 110.977 73.9801 110.977C74.3324 110.977 74.6506 110.928 74.9347 110.83C75.2225 110.727 75.4706 110.576 75.679 110.375C75.8873 110.17 76.0483 109.917 76.1619 109.614L77.4574 109.977C77.321 110.417 77.0919 110.803 76.7699 111.136C76.4479 111.466 76.0502 111.723 75.5767 111.909C75.1032 112.091 74.571 112.182 73.9801 112.182Z" fill="black"/>
<path d="M225.818 7.36364V19H224.409V7.36364H225.818ZM229.803 13.75V19H228.462V10.2727H229.757V11.6364H229.871C230.075 11.1932 230.386 10.8371 230.803 10.5682C231.219 10.2955 231.757 10.1591 232.416 10.1591C233.007 10.1591 233.524 10.2803 233.967 10.5227C234.411 10.7614 234.755 11.125 235.001 11.6136C235.248 12.0985 235.371 12.7121 235.371 13.4545V19H234.03V13.5455C234.03 12.8598 233.852 12.3258 233.496 11.9432C233.14 11.5568 232.651 11.3636 232.03 11.3636C231.602 11.3636 231.219 11.4564 230.882 11.642C230.549 11.8277 230.286 12.0985 230.092 12.4545C229.899 12.8106 229.803 13.2424 229.803 13.75ZM241.616 10.2727V11.4091H237.094V10.2727H241.616ZM238.412 8.18182H239.753V16.5C239.753 16.8788 239.808 17.1629 239.918 17.3523C240.031 17.5379 240.175 17.6629 240.349 17.7273C240.527 17.7879 240.715 17.8182 240.912 17.8182C241.06 17.8182 241.181 17.8106 241.276 17.7955C241.37 17.7765 241.446 17.7614 241.503 17.75L241.776 18.9545C241.685 18.9886 241.558 19.0227 241.395 19.0568C241.232 19.0947 241.026 19.1136 240.776 19.1136C240.397 19.1136 240.026 19.0322 239.662 18.8693C239.302 18.7064 239.003 18.4583 238.764 18.125C238.529 17.7917 238.412 17.3712 238.412 16.8636V8.18182ZM247.199 19.1818C246.358 19.1818 245.633 18.9962 245.023 18.625C244.417 18.25 243.949 17.7273 243.619 17.0568C243.294 16.3826 243.131 15.5985 243.131 14.7045C243.131 13.8106 243.294 13.0227 243.619 12.3409C243.949 11.6553 244.407 11.1212 244.994 10.7386C245.585 10.3523 246.275 10.1591 247.062 10.1591C247.517 10.1591 247.966 10.2348 248.409 10.3864C248.852 10.5379 249.256 10.7841 249.619 11.125C249.983 11.4621 250.273 11.9091 250.489 12.4659C250.705 13.0227 250.812 13.7083 250.812 14.5227V15.0909H244.085V13.9318H249.449C249.449 13.4394 249.35 13 249.153 12.6136C248.96 12.2273 248.684 11.9223 248.324 11.6989C247.968 11.4754 247.547 11.3636 247.062 11.3636C246.528 11.3636 246.066 11.4962 245.676 11.7614C245.29 12.0227 244.992 12.3636 244.784 12.7841C244.576 13.2045 244.472 13.6553 244.472 14.1364V14.9091C244.472 15.5682 244.585 16.1269 244.812 16.5852C245.044 17.0398 245.364 17.3864 245.773 17.625C246.182 17.8598 246.657 17.9773 247.199 17.9773C247.551 17.9773 247.869 17.928 248.153 17.8295C248.441 17.7273 248.689 17.5758 248.898 17.375C249.106 17.1705 249.267 16.9167 249.381 16.6136L250.676 16.9773C250.54 17.4167 250.311 17.803 249.989 18.1364C249.667 18.4659 249.269 18.7235 248.795 18.9091C248.322 19.0909 247.79 19.1818 247.199 19.1818ZM252.852 19V10.2727H254.148V11.5909H254.239C254.398 11.1591 254.686 10.8087 255.102 10.5398C255.519 10.2708 255.989 10.1364 256.511 10.1364C256.61 10.1364 256.733 10.1383 256.881 10.142C257.028 10.1458 257.14 10.1515 257.216 10.1591V11.5227C257.17 11.5114 257.066 11.4943 256.903 11.4716C256.744 11.4451 256.576 11.4318 256.398 11.4318C255.973 11.4318 255.595 11.5208 255.261 11.6989C254.932 11.8731 254.67 12.1155 254.477 12.4261C254.288 12.733 254.193 13.0833 254.193 13.4773V19H252.852ZM260.146 13.75V19H258.805V10.2727H260.101V11.6364H260.214C260.419 11.1932 260.73 10.8371 261.146 10.5682C261.563 10.2955 262.101 10.1591 262.76 10.1591C263.351 10.1591 263.868 10.2803 264.311 10.5227C264.754 10.7614 265.099 11.125 265.345 11.6136C265.591 12.0985 265.714 12.7121 265.714 13.4545V19H264.374V13.5455C264.374 12.8598 264.196 12.3258 263.839 11.9432C263.483 11.5568 262.995 11.3636 262.374 11.3636C261.946 11.3636 261.563 11.4564 261.226 11.642C260.893 11.8277 260.629 12.0985 260.436 12.4545C260.243 12.8106 260.146 13.2424 260.146 13.75ZM271.824 19.1818C270.983 19.1818 270.258 18.9962 269.648 18.625C269.042 18.25 268.574 17.7273 268.244 17.0568C267.919 16.3826 267.756 15.5985 267.756 14.7045C267.756 13.8106 267.919 13.0227 268.244 12.3409C268.574 11.6553 269.032 11.1212 269.619 10.7386C270.21 10.3523 270.9 10.1591 271.688 10.1591C272.142 10.1591 272.591 10.2348 273.034 10.3864C273.477 10.5379 273.881 10.7841 274.244 11.125C274.608 11.4621 274.898 11.9091 275.114 12.4659C275.33 13.0227 275.438 13.7083 275.438 14.5227V15.0909H268.71V13.9318H274.074C274.074 13.4394 273.975 13 273.778 12.6136C273.585 12.2273 273.309 11.9223 272.949 11.6989C272.593 11.4754 272.172 11.3636 271.688 11.3636C271.153 11.3636 270.691 11.4962 270.301 11.7614C269.915 12.0227 269.617 12.3636 269.409 12.7841C269.201 13.2045 269.097 13.6553 269.097 14.1364V14.9091C269.097 15.5682 269.21 16.1269 269.438 16.5852C269.669 17.0398 269.989 17.3864 270.398 17.625C270.807 17.8598 271.282 17.9773 271.824 17.9773C272.176 17.9773 272.494 17.928 272.778 17.8295C273.066 17.7273 273.314 17.5758 273.523 17.375C273.731 17.1705 273.892 16.9167 274.006 16.6136L275.301 16.9773C275.165 17.4167 274.936 17.803 274.614 18.1364C274.292 18.4659 273.894 18.7235 273.42 18.9091C272.947 19.0909 272.415 19.1818 271.824 19.1818ZM281.273 10.2727V11.4091H276.75V10.2727H281.273ZM278.068 8.18182H279.409V16.5C279.409 16.8788 279.464 17.1629 279.574 17.3523C279.688 17.5379 279.831 17.6629 280.006 17.7273C280.184 17.7879 280.371 17.8182 280.568 17.8182C280.716 17.8182 280.837 17.8106 280.932 17.7955C281.027 17.7765 281.102 17.7614 281.159 17.75L281.432 18.9545C281.341 18.9886 281.214 19.0227 281.051 19.0568C280.888 19.0947 280.682 19.1136 280.432 19.1136C280.053 19.1136 279.682 19.0322 279.318 18.8693C278.958 18.7064 278.659 18.4583 278.42 18.125C278.186 17.7917 278.068 17.3712 278.068 16.8636V8.18182ZM297.335 11H295.926C295.843 10.5947 295.697 10.2386 295.489 9.93182C295.284 9.625 295.034 9.36742 294.739 9.15909C294.447 8.94697 294.123 8.78788 293.767 8.68182C293.411 8.57576 293.04 8.52273 292.653 8.52273C291.949 8.52273 291.311 8.70076 290.739 9.05682C290.17 9.41288 289.718 9.9375 289.381 10.6307C289.047 11.3239 288.881 12.1742 288.881 13.1818C288.881 14.1894 289.047 15.0398 289.381 15.733C289.718 16.4261 290.17 16.9508 290.739 17.3068C291.311 17.6629 291.949 17.8409 292.653 17.8409C293.04 17.8409 293.411 17.7879 293.767 17.6818C294.123 17.5758 294.447 17.4186 294.739 17.2102C295.034 16.9981 295.284 16.7386 295.489 16.4318C295.697 16.1212 295.843 15.7652 295.926 15.3636H297.335C297.229 15.9583 297.036 16.4905 296.756 16.9602C296.475 17.4299 296.127 17.8295 295.71 18.1591C295.294 18.4848 294.826 18.733 294.307 18.9034C293.792 19.0739 293.241 19.1591 292.653 19.1591C291.661 19.1591 290.778 18.9167 290.006 18.4318C289.233 17.947 288.625 17.2576 288.182 16.3636C287.739 15.4697 287.517 14.4091 287.517 13.1818C287.517 11.9545 287.739 10.8939 288.182 10C288.625 9.10606 289.233 8.41667 290.006 7.93182C290.778 7.44697 291.661 7.20455 292.653 7.20455C293.241 7.20455 293.792 7.28977 294.307 7.46023C294.826 7.63068 295.294 7.88068 295.71 8.21023C296.127 8.53598 296.475 8.93371 296.756 9.40341C297.036 9.86932 297.229 10.4015 297.335 11ZM302.976 19.1818C302.188 19.1818 301.497 18.9943 300.902 18.6193C300.311 18.2443 299.849 17.7197 299.516 17.0455C299.186 16.3712 299.021 15.5833 299.021 14.6818C299.021 13.7727 299.186 12.9792 299.516 12.3011C299.849 11.6231 300.311 11.0966 300.902 10.7216C301.497 10.3466 302.188 10.1591 302.976 10.1591C303.764 10.1591 304.453 10.3466 305.044 10.7216C305.639 11.0966 306.101 11.6231 306.43 12.3011C306.764 12.9792 306.93 13.7727 306.93 14.6818C306.93 15.5833 306.764 16.3712 306.43 17.0455C306.101 17.7197 305.639 18.2443 305.044 18.6193C304.453 18.9943 303.764 19.1818 302.976 19.1818ZM302.976 17.9773C303.574 17.9773 304.067 17.8239 304.453 17.517C304.839 17.2102 305.125 16.8068 305.311 16.3068C305.497 15.8068 305.589 15.2652 305.589 14.6818C305.589 14.0985 305.497 13.5549 305.311 13.0511C305.125 12.5473 304.839 12.1402 304.453 11.8295C304.067 11.5189 303.574 11.3636 302.976 11.3636C302.377 11.3636 301.885 11.5189 301.499 11.8295C301.112 12.1402 300.826 12.5473 300.641 13.0511C300.455 13.5549 300.362 14.0985 300.362 14.6818C300.362 15.2652 300.455 15.8068 300.641 16.3068C300.826 16.8068 301.112 17.2102 301.499 17.517C301.885 17.8239 302.377 17.9773 302.976 17.9773ZM310.318 13.75V19H308.977V10.2727H310.273V11.6364H310.386C310.591 11.1932 310.902 10.8371 311.318 10.5682C311.735 10.2955 312.273 10.1591 312.932 10.1591C313.523 10.1591 314.04 10.2803 314.483 10.5227C314.926 10.7614 315.271 11.125 315.517 11.6136C315.763 12.0985 315.886 12.7121 315.886 13.4545V19H314.545V13.5455C314.545 12.8598 314.367 12.3258 314.011 11.9432C313.655 11.5568 313.167 11.3636 312.545 11.3636C312.117 11.3636 311.735 11.4564 311.398 11.642C311.064 11.8277 310.801 12.0985 310.608 12.4545C310.415 12.8106 310.318 13.2424 310.318 13.75ZM319.678 13.75V19H318.337V10.2727H319.632V11.6364H319.746C319.95 11.1932 320.261 10.8371 320.678 10.5682C321.094 10.2955 321.632 10.1591 322.291 10.1591C322.882 10.1591 323.399 10.2803 323.842 10.5227C324.286 10.7614 324.63 11.125 324.876 11.6136C325.123 12.0985 325.246 12.7121 325.246 13.4545V19H323.905V13.5455C323.905 12.8598 323.727 12.3258 323.371 11.9432C323.015 11.5568 322.526 11.3636 321.905 11.3636C321.477 11.3636 321.094 11.4564 320.757 11.642C320.424 11.8277 320.161 12.0985 319.967 12.4545C319.774 12.8106 319.678 13.2424 319.678 13.75ZM331.355 19.1818C330.514 19.1818 329.789 18.9962 329.179 18.625C328.573 18.25 328.105 17.7273 327.776 17.0568C327.45 16.3826 327.287 15.5985 327.287 14.7045C327.287 13.8106 327.45 13.0227 327.776 12.3409C328.105 11.6553 328.563 11.1212 329.151 10.7386C329.741 10.3523 330.431 10.1591 331.219 10.1591C331.673 10.1591 332.122 10.2348 332.565 10.3864C333.009 10.5379 333.412 10.7841 333.776 11.125C334.139 11.4621 334.429 11.9091 334.645 12.4659C334.861 13.0227 334.969 13.7083 334.969 14.5227V15.0909H328.241V13.9318H333.605C333.605 13.4394 333.507 13 333.31 12.6136C333.116 12.2273 332.84 11.9223 332.48 11.6989C332.124 11.4754 331.704 11.3636 331.219 11.3636C330.685 11.3636 330.223 11.4962 329.832 11.7614C329.446 12.0227 329.149 12.3636 328.94 12.7841C328.732 13.2045 328.628 13.6553 328.628 14.1364V14.9091C328.628 15.5682 328.741 16.1269 328.969 16.5852C329.2 17.0398 329.52 17.3864 329.929 17.625C330.338 17.8598 330.813 17.9773 331.355 17.9773C331.707 17.9773 332.026 17.928 332.31 17.8295C332.598 17.7273 332.846 17.5758 333.054 17.375C333.262 17.1705 333.423 16.9167 333.537 16.6136L334.832 16.9773C334.696 17.4167 334.467 17.803 334.145 18.1364C333.823 18.4659 333.425 18.7235 332.952 18.9091C332.478 19.0909 331.946 19.1818 331.355 19.1818ZM340.554 19.1818C339.736 19.1818 339.031 18.9886 338.44 18.6023C337.849 18.2159 337.395 17.6837 337.077 17.0057C336.759 16.3277 336.599 15.553 336.599 14.6818C336.599 13.7955 336.762 13.0133 337.088 12.3352C337.418 11.6534 337.876 11.1212 338.463 10.7386C339.054 10.3523 339.743 10.1591 340.531 10.1591C341.145 10.1591 341.698 10.2727 342.19 10.5C342.683 10.7273 343.086 11.0455 343.401 11.4545C343.715 11.8636 343.91 12.3409 343.986 12.8864H342.645C342.543 12.4886 342.315 12.1364 341.963 11.8295C341.615 11.5189 341.145 11.3636 340.554 11.3636C340.031 11.3636 339.573 11.5 339.179 11.7727C338.789 12.0417 338.484 12.4223 338.264 12.9148C338.048 13.4034 337.94 13.9773 337.94 14.6364C337.94 15.3106 338.046 15.8977 338.259 16.3977C338.474 16.8977 338.777 17.286 339.168 17.5625C339.562 17.839 340.024 17.9773 340.554 17.9773C340.902 17.9773 341.219 17.9167 341.503 17.7955C341.787 17.6742 342.027 17.5 342.224 17.2727C342.421 17.0455 342.562 16.7727 342.645 16.4545H343.986C343.91 16.9697 343.723 17.4337 343.423 17.8466C343.128 18.2557 342.736 18.5814 342.247 18.8239C341.762 19.0625 341.198 19.1818 340.554 19.1818ZM349.741 10.2727V11.4091H345.219V10.2727H349.741ZM346.537 8.18182H347.878V16.5C347.878 16.8788 347.933 17.1629 348.043 17.3523C348.156 17.5379 348.3 17.6629 348.474 17.7273C348.652 17.7879 348.84 17.8182 349.037 17.8182C349.185 17.8182 349.306 17.8106 349.401 17.7955C349.495 17.7765 349.571 17.7614 349.628 17.75L349.901 18.9545C349.81 18.9886 349.683 19.0227 349.52 19.0568C349.357 19.0947 349.151 19.1136 348.901 19.1136C348.522 19.1136 348.151 19.0322 347.787 18.8693C347.427 18.7064 347.128 18.4583 346.889 18.125C346.654 17.7917 346.537 17.3712 346.537 16.8636V8.18182ZM351.759 19V10.2727H353.099V19H351.759ZM352.44 8.81818C352.179 8.81818 351.954 8.72917 351.764 8.55114C351.579 8.37311 351.486 8.15909 351.486 7.90909C351.486 7.65909 351.579 7.44508 351.764 7.26705C351.954 7.08902 352.179 7 352.44 7C352.702 7 352.925 7.08902 353.111 7.26705C353.3 7.44508 353.395 7.65909 353.395 7.90909C353.395 8.15909 353.3 8.37311 353.111 8.55114C352.925 8.72917 352.702 8.81818 352.44 8.81818ZM359.101 19.1818C358.313 19.1818 357.622 18.9943 357.027 18.6193C356.436 18.2443 355.974 17.7197 355.641 17.0455C355.311 16.3712 355.146 15.5833 355.146 14.6818C355.146 13.7727 355.311 12.9792 355.641 12.3011C355.974 11.6231 356.436 11.0966 357.027 10.7216C357.622 10.3466 358.313 10.1591 359.101 10.1591C359.889 10.1591 360.578 10.3466 361.169 10.7216C361.764 11.0966 362.226 11.6231 362.555 12.3011C362.889 12.9792 363.055 13.7727 363.055 14.6818C363.055 15.5833 362.889 16.3712 362.555 17.0455C362.226 17.7197 361.764 18.2443 361.169 18.6193C360.578 18.9943 359.889 19.1818 359.101 19.1818ZM359.101 17.9773C359.699 17.9773 360.192 17.8239 360.578 17.517C360.964 17.2102 361.25 16.8068 361.436 16.3068C361.622 15.8068 361.714 15.2652 361.714 14.6818C361.714 14.0985 361.622 13.5549 361.436 13.0511C361.25 12.5473 360.964 12.1402 360.578 11.8295C360.192 11.5189 359.699 11.3636 359.101 11.3636C358.502 11.3636 358.01 11.5189 357.624 11.8295C357.237 12.1402 356.951 12.5473 356.766 13.0511C356.58 13.5549 356.487 14.0985 356.487 14.6818C356.487 15.2652 356.58 15.8068 356.766 16.3068C356.951 16.8068 357.237 17.2102 357.624 17.517C358.01 17.8239 358.502 17.9773 359.101 17.9773ZM366.443 13.75V19H365.102V10.2727H366.398V11.6364H366.511C366.716 11.1932 367.027 10.8371 367.443 10.5682C367.86 10.2955 368.398 10.1591 369.057 10.1591C369.648 10.1591 370.165 10.2803 370.608 10.5227C371.051 10.7614 371.396 11.125 371.642 11.6136C371.888 12.0985 372.011 12.7121 372.011 13.4545V19H370.67V13.5455C370.67 12.8598 370.492 12.3258 370.136 11.9432C369.78 11.5568 369.292 11.3636 368.67 11.3636C368.242 11.3636 367.86 11.4564 367.523 11.642C367.189 11.8277 366.926 12.0985 366.733 12.4545C366.54 12.8106 366.443 13.2424 366.443 13.75ZM378.507 8.61364V7.36364H387.234V8.61364H383.575V19H382.166V8.61364H378.507ZM389.091 22.2727C388.864 22.2727 388.661 22.2538 388.483 22.2159C388.305 22.1818 388.182 22.1477 388.114 22.1136L388.455 20.9318C388.78 21.0152 389.068 21.0455 389.318 21.0227C389.568 21 389.79 20.8883 389.983 20.6875C390.18 20.4905 390.36 20.1705 390.523 19.7273L390.773 19.0455L387.545 10.2727H389L391.409 17.2273H391.5L393.909 10.2727H395.364L391.659 20.2727C391.492 20.7235 391.286 21.0966 391.04 21.392C390.794 21.6913 390.508 21.9129 390.182 22.0568C389.86 22.2008 389.496 22.2727 389.091 22.2727ZM397.134 22.2727V10.2727H398.429V11.6591H398.588C398.687 11.5076 398.823 11.3144 398.997 11.0795C399.175 10.8409 399.429 10.6288 399.759 10.4432C400.092 10.2538 400.543 10.1591 401.111 10.1591C401.846 10.1591 402.493 10.3428 403.054 10.7102C403.615 11.0777 404.052 11.5985 404.366 12.2727C404.681 12.947 404.838 13.7424 404.838 14.6591C404.838 15.5833 404.681 16.3845 404.366 17.0625C404.052 17.7367 403.616 18.2595 403.06 18.6307C402.503 18.9981 401.861 19.1818 401.134 19.1818C400.573 19.1818 400.124 19.089 399.787 18.9034C399.45 18.714 399.19 18.5 399.009 18.2614C398.827 18.0189 398.687 17.8182 398.588 17.6591H398.474V22.2727H397.134ZM398.452 14.6364C398.452 15.2955 398.548 15.8769 398.741 16.3807C398.935 16.8807 399.217 17.2727 399.588 17.5568C399.959 17.8371 400.414 17.9773 400.952 17.9773C401.512 17.9773 401.98 17.8295 402.355 17.5341C402.734 17.2348 403.018 16.8333 403.207 16.3295C403.401 15.822 403.497 15.2576 403.497 14.6364C403.497 14.0227 403.402 13.4697 403.213 12.9773C403.027 12.4811 402.745 12.089 402.366 11.8011C401.991 11.5095 401.52 11.3636 400.952 11.3636C400.406 11.3636 399.948 11.5019 399.577 11.7784C399.205 12.0511 398.925 12.4337 398.736 12.9261C398.546 13.4148 398.452 13.9848 398.452 14.6364ZM410.543 19.1818C409.702 19.1818 408.976 18.9962 408.366 18.625C407.76 18.25 407.293 17.7273 406.963 17.0568C406.637 16.3826 406.474 15.5985 406.474 14.7045C406.474 13.8106 406.637 13.0227 406.963 12.3409C407.293 11.6553 407.751 11.1212 408.338 10.7386C408.929 10.3523 409.618 10.1591 410.406 10.1591C410.861 10.1591 411.31 10.2348 411.753 10.3864C412.196 10.5379 412.599 10.7841 412.963 11.125C413.327 11.4621 413.616 11.9091 413.832 12.4659C414.048 13.0227 414.156 13.7083 414.156 14.5227V15.0909H407.429V13.9318H412.793C412.793 13.4394 412.694 13 412.497 12.6136C412.304 12.2273 412.027 11.9223 411.668 11.6989C411.312 11.4754 410.891 11.3636 410.406 11.3636C409.872 11.3636 409.41 11.4962 409.02 11.7614C408.634 12.0227 408.336 12.3636 408.128 12.7841C407.92 13.2045 407.815 13.6553 407.815 14.1364V14.9091C407.815 15.5682 407.929 16.1269 408.156 16.5852C408.387 17.0398 408.707 17.3864 409.116 17.625C409.526 17.8598 410.001 17.9773 410.543 17.9773C410.895 17.9773 411.213 17.928 411.497 17.8295C411.785 17.7273 412.033 17.5758 412.241 17.375C412.45 17.1705 412.611 16.9167 412.724 16.6136L414.02 16.9773C413.884 17.4167 413.654 17.803 413.332 18.1364C413.01 18.4659 412.613 18.7235 412.139 18.9091C411.666 19.0909 411.134 19.1818 410.543 19.1818Z" fill="black"/>
<path d="M482.523 19L479.341 7.36364H480.773L483.205 16.8409H483.318L485.795 7.36364H487.386L489.864 16.8409H489.977L492.409 7.36364H493.841L490.659 19H489.205L486.636 9.72727H486.545L483.977 19H482.523ZM495.415 19V10.2727H496.756V19H495.415ZM496.097 8.81818C495.835 8.81818 495.61 8.72917 495.42 8.55114C495.235 8.37311 495.142 8.15909 495.142 7.90909C495.142 7.65909 495.235 7.44508 495.42 7.26705C495.61 7.08902 495.835 7 496.097 7C496.358 7 496.581 7.08902 496.767 7.26705C496.956 7.44508 497.051 7.65909 497.051 7.90909C497.051 8.15909 496.956 8.37311 496.767 8.55114C496.581 8.72917 496.358 8.81818 496.097 8.81818ZM499.212 19V10.2727H500.507V11.5909H500.598C500.757 11.1591 501.045 10.8087 501.462 10.5398C501.878 10.2708 502.348 10.1364 502.871 10.1364C502.969 10.1364 503.092 10.1383 503.24 10.142C503.388 10.1458 503.5 10.1515 503.575 10.1591V11.5227C503.53 11.5114 503.426 11.4943 503.263 11.4716C503.104 11.4451 502.935 11.4318 502.757 11.4318C502.333 11.4318 501.954 11.5208 501.621 11.6989C501.291 11.8731 501.03 12.1155 500.837 12.4261C500.647 12.733 500.553 13.0833 500.553 13.4773V19H499.212ZM508.558 19.1818C507.717 19.1818 506.992 18.9962 506.382 18.625C505.776 18.25 505.308 17.7273 504.979 17.0568C504.653 16.3826 504.49 15.5985 504.49 14.7045C504.49 13.8106 504.653 13.0227 504.979 12.3409C505.308 11.6553 505.767 11.1212 506.354 10.7386C506.945 10.3523 507.634 10.1591 508.422 10.1591C508.876 10.1591 509.325 10.2348 509.768 10.3864C510.212 10.5379 510.615 10.7841 510.979 11.125C511.342 11.4621 511.632 11.9091 511.848 12.4659C512.064 13.0227 512.172 13.7083 512.172 14.5227V15.0909H505.445V13.9318H510.808C510.808 13.4394 510.71 13 510.513 12.6136C510.32 12.2273 510.043 11.9223 509.683 11.6989C509.327 11.4754 508.907 11.3636 508.422 11.3636C507.888 11.3636 507.426 11.4962 507.036 11.7614C506.649 12.0227 506.352 12.3636 506.143 12.7841C505.935 13.2045 505.831 13.6553 505.831 14.1364V14.9091C505.831 15.5682 505.945 16.1269 506.172 16.5852C506.403 17.0398 506.723 17.3864 507.132 17.625C507.541 17.8598 508.017 17.9773 508.558 17.9773C508.911 17.9773 509.229 17.928 509.513 17.8295C509.801 17.7273 510.049 17.5758 510.257 17.375C510.465 17.1705 510.626 16.9167 510.74 16.6136L512.036 16.9773C511.899 17.4167 511.67 17.803 511.348 18.1364C511.026 18.4659 510.628 18.7235 510.155 18.9091C509.681 19.0909 509.149 19.1818 508.558 19.1818ZM515.553 7.36364V19H514.212V7.36364H515.553ZM521.668 19.1818C520.827 19.1818 520.101 18.9962 519.491 18.625C518.885 18.25 518.418 17.7273 518.088 17.0568C517.762 16.3826 517.599 15.5985 517.599 14.7045C517.599 13.8106 517.762 13.0227 518.088 12.3409C518.418 11.6553 518.876 11.1212 519.463 10.7386C520.054 10.3523 520.743 10.1591 521.531 10.1591C521.986 10.1591 522.435 10.2348 522.878 10.3864C523.321 10.5379 523.724 10.7841 524.088 11.125C524.452 11.4621 524.741 11.9091 524.957 12.4659C525.173 13.0227 525.281 13.7083 525.281 14.5227V15.0909H518.554V13.9318H523.918C523.918 13.4394 523.819 13 523.622 12.6136C523.429 12.2273 523.152 11.9223 522.793 11.6989C522.437 11.4754 522.016 11.3636 521.531 11.3636C520.997 11.3636 520.535 11.4962 520.145 11.7614C519.759 12.0227 519.461 12.3636 519.253 12.7841C519.045 13.2045 518.94 13.6553 518.94 14.1364V14.9091C518.94 15.5682 519.054 16.1269 519.281 16.5852C519.512 17.0398 519.832 17.3864 520.241 17.625C520.651 17.8598 521.126 17.9773 521.668 17.9773C522.02 17.9773 522.338 17.928 522.622 17.8295C522.91 17.7273 523.158 17.5758 523.366 17.375C523.575 17.1705 523.736 16.9167 523.849 16.6136L525.145 16.9773C525.009 17.4167 524.779 17.803 524.457 18.1364C524.135 18.4659 523.738 18.7235 523.264 18.9091C522.791 19.0909 522.259 19.1818 521.668 19.1818ZM533.503 12.2273L532.298 12.5682C532.223 12.3674 532.111 12.1723 531.963 11.983C531.819 11.7898 531.622 11.6307 531.372 11.5057C531.122 11.3807 530.802 11.3182 530.412 11.3182C529.878 11.3182 529.433 11.4413 529.077 11.6875C528.724 11.9299 528.548 12.2386 528.548 12.6136C528.548 12.947 528.67 13.2102 528.912 13.4034C529.154 13.5966 529.533 13.7576 530.048 13.8864L531.344 14.2045C532.124 14.3939 532.705 14.6837 533.088 15.0739C533.471 15.4602 533.662 15.9583 533.662 16.5682C533.662 17.0682 533.518 17.5152 533.23 17.9091C532.946 18.303 532.548 18.6136 532.037 18.8409C531.526 19.0682 530.931 19.1818 530.253 19.1818C529.363 19.1818 528.626 18.9886 528.043 18.6023C527.459 18.2159 527.09 17.6515 526.935 16.9091L528.207 16.5909C528.329 17.0606 528.558 17.4129 528.895 17.6477C529.236 17.8826 529.681 18 530.23 18C530.855 18 531.351 17.8674 531.719 17.6023C532.09 17.3333 532.276 17.0114 532.276 16.6364C532.276 16.3333 532.17 16.0795 531.957 15.875C531.745 15.6667 531.42 15.5114 530.98 15.4091L529.526 15.0682C528.726 14.8788 528.139 14.5852 527.764 14.1875C527.393 13.786 527.207 13.2841 527.207 12.6818C527.207 12.1894 527.346 11.7538 527.622 11.375C527.902 10.9962 528.283 10.6989 528.764 10.483C529.249 10.267 529.798 10.1591 530.412 10.1591C531.276 10.1591 531.954 10.3485 532.446 10.7273C532.942 11.1061 533.295 11.6061 533.503 12.2273ZM541.862 12.2273L540.658 12.5682C540.582 12.3674 540.47 12.1723 540.322 11.983C540.179 11.7898 539.982 11.6307 539.732 11.5057C539.482 11.3807 539.161 11.3182 538.771 11.3182C538.237 11.3182 537.792 11.4413 537.436 11.6875C537.084 11.9299 536.908 12.2386 536.908 12.6136C536.908 12.947 537.029 13.2102 537.271 13.4034C537.514 13.5966 537.893 13.7576 538.408 13.8864L539.703 14.2045C540.483 14.3939 541.065 14.6837 541.447 15.0739C541.83 15.4602 542.021 15.9583 542.021 16.5682C542.021 17.0682 541.877 17.5152 541.589 17.9091C541.305 18.303 540.908 18.6136 540.396 18.8409C539.885 19.0682 539.29 19.1818 538.612 19.1818C537.722 19.1818 536.985 18.9886 536.402 18.6023C535.819 18.2159 535.449 17.6515 535.294 16.9091L536.567 16.5909C536.688 17.0606 536.917 17.4129 537.254 17.6477C537.595 17.8826 538.04 18 538.589 18C539.214 18 539.711 17.8674 540.078 17.6023C540.449 17.3333 540.635 17.0114 540.635 16.6364C540.635 16.3333 540.529 16.0795 540.317 15.875C540.105 15.6667 539.779 15.5114 539.339 15.4091L537.885 15.0682C537.086 14.8788 536.499 14.5852 536.124 14.1875C535.752 13.786 535.567 13.2841 535.567 12.6818C535.567 12.1894 535.705 11.7538 535.982 11.375C536.262 10.9962 536.643 10.6989 537.124 10.483C537.608 10.267 538.158 10.1591 538.771 10.1591C539.635 10.1591 540.313 10.3485 540.805 10.7273C541.302 11.1061 541.654 11.6061 541.862 12.2273ZM555.085 10.2727C555.017 9.69697 554.741 9.25 554.256 8.93182C553.771 8.61364 553.176 8.45455 552.472 8.45455C551.956 8.45455 551.506 8.53788 551.119 8.70455C550.737 8.87121 550.438 9.10038 550.222 9.39205C550.009 9.68371 549.903 10.0152 549.903 10.3864C549.903 10.697 549.977 10.964 550.125 11.1875C550.277 11.4072 550.47 11.5909 550.705 11.7386C550.939 11.8826 551.186 12.0019 551.443 12.0966C551.701 12.1875 551.938 12.2614 552.153 12.3182L553.335 12.6364C553.638 12.7159 553.975 12.8258 554.347 12.9659C554.722 13.1061 555.08 13.2973 555.42 13.5398C555.765 13.7784 556.049 14.0852 556.273 14.4602C556.496 14.8352 556.608 15.2955 556.608 15.8409C556.608 16.4697 556.443 17.0379 556.114 17.5455C555.788 18.053 555.311 18.4564 554.682 18.7557C554.057 19.0549 553.297 19.2045 552.403 19.2045C551.57 19.2045 550.848 19.0701 550.239 18.8011C549.633 18.5322 549.155 18.1572 548.807 17.6761C548.462 17.1951 548.267 16.6364 548.222 16H549.676C549.714 16.4394 549.862 16.803 550.119 17.0909C550.381 17.375 550.71 17.5871 551.108 17.7273C551.509 17.8636 551.941 17.9318 552.403 17.9318C552.941 17.9318 553.424 17.8447 553.852 17.6705C554.28 17.4924 554.619 17.2462 554.869 16.9318C555.119 16.6136 555.244 16.2424 555.244 15.8182C555.244 15.4318 555.136 15.1174 554.92 14.875C554.705 14.6326 554.42 14.4356 554.068 14.2841C553.716 14.1326 553.335 14 552.926 13.8864L551.494 13.4773C550.585 13.2159 549.866 12.8428 549.335 12.358C548.805 11.8731 548.54 11.2386 548.54 10.4545C548.54 9.80303 548.716 9.23485 549.068 8.75C549.424 8.26136 549.902 7.88258 550.5 7.61364C551.102 7.34091 551.775 7.20455 552.517 7.20455C553.267 7.20455 553.934 7.33901 554.517 7.60795C555.1 7.87311 555.563 8.23674 555.903 8.69886C556.248 9.16098 556.43 9.68561 556.449 10.2727H555.085ZM562.402 19.1818C561.561 19.1818 560.836 18.9962 560.226 18.625C559.62 18.25 559.152 17.7273 558.822 17.0568C558.497 16.3826 558.334 15.5985 558.334 14.7045C558.334 13.8106 558.497 13.0227 558.822 12.3409C559.152 11.6553 559.61 11.1212 560.197 10.7386C560.788 10.3523 561.478 10.1591 562.266 10.1591C562.72 10.1591 563.169 10.2348 563.612 10.3864C564.055 10.5379 564.459 10.7841 564.822 11.125C565.186 11.4621 565.476 11.9091 565.692 12.4659C565.908 13.0227 566.016 13.7083 566.016 14.5227V15.0909H559.288V13.9318H564.652C564.652 13.4394 564.554 13 564.357 12.6136C564.163 12.2273 563.887 11.9223 563.527 11.6989C563.171 11.4754 562.75 11.3636 562.266 11.3636C561.732 11.3636 561.269 11.4962 560.879 11.7614C560.493 12.0227 560.196 12.3636 559.987 12.7841C559.779 13.2045 559.675 13.6553 559.675 14.1364V14.9091C559.675 15.5682 559.788 16.1269 560.016 16.5852C560.247 17.0398 560.567 17.3864 560.976 17.625C561.385 17.8598 561.86 17.9773 562.402 17.9773C562.754 17.9773 563.072 17.928 563.357 17.8295C563.644 17.7273 563.893 17.5758 564.101 17.375C564.309 17.1705 564.47 16.9167 564.584 16.6136L565.879 16.9773C565.743 17.4167 565.514 17.803 565.192 18.1364C564.87 18.4659 564.472 18.7235 563.999 18.9091C563.525 19.0909 562.993 19.1818 562.402 19.1818ZM571.851 10.2727V11.4091H567.328V10.2727H571.851ZM568.646 8.18182H569.987V16.5C569.987 16.8788 570.042 17.1629 570.152 17.3523C570.266 17.5379 570.41 17.6629 570.584 17.7273C570.762 17.7879 570.949 17.8182 571.146 17.8182C571.294 17.8182 571.415 17.8106 571.51 17.7955C571.605 17.7765 571.68 17.7614 571.737 17.75L572.01 18.9545C571.919 18.9886 571.792 19.0227 571.629 19.0568C571.466 19.0947 571.26 19.1136 571.01 19.1136C570.631 19.1136 570.26 19.0322 569.896 18.8693C569.536 18.7064 569.237 18.4583 568.999 18.125C568.764 17.7917 568.646 17.3712 568.646 16.8636V8.18182ZM577.663 10.2727V11.4091H573.141V10.2727H577.663ZM574.459 8.18182H575.8V16.5C575.8 16.8788 575.855 17.1629 575.964 17.3523C576.078 17.5379 576.222 17.6629 576.396 17.7273C576.574 17.7879 576.762 17.8182 576.959 17.8182C577.107 17.8182 577.228 17.8106 577.322 17.7955C577.417 17.7765 577.493 17.7614 577.55 17.75L577.822 18.9545C577.732 18.9886 577.605 19.0227 577.442 19.0568C577.279 19.0947 577.072 19.1136 576.822 19.1136C576.444 19.1136 576.072 19.0322 575.709 18.8693C575.349 18.7064 575.05 18.4583 574.811 18.125C574.576 17.7917 574.459 17.3712 574.459 16.8636V8.18182ZM579.68 19V10.2727H581.021V19H579.68ZM580.362 8.81818C580.101 8.81818 579.875 8.72917 579.686 8.55114C579.5 8.37311 579.408 8.15909 579.408 7.90909C579.408 7.65909 579.5 7.44508 579.686 7.26705C579.875 7.08902 580.101 7 580.362 7C580.624 7 580.847 7.08902 581.033 7.26705C581.222 7.44508 581.317 7.65909 581.317 7.90909C581.317 8.15909 581.222 8.37311 581.033 8.55114C580.847 8.72917 580.624 8.81818 580.362 8.81818ZM584.818 13.75V19H583.477V10.2727H584.773V11.6364H584.886C585.091 11.1932 585.402 10.8371 585.818 10.5682C586.235 10.2955 586.773 10.1591 587.432 10.1591C588.023 10.1591 588.54 10.2803 588.983 10.5227C589.426 10.7614 589.771 11.125 590.017 11.6136C590.263 12.0985 590.386 12.7121 590.386 13.4545V19H589.045V13.5455C589.045 12.8598 588.867 12.3258 588.511 11.9432C588.155 11.5568 587.667 11.3636 587.045 11.3636C586.617 11.3636 586.235 11.4564 585.898 11.642C585.564 11.8277 585.301 12.0985 585.108 12.4545C584.915 12.8106 584.818 13.2424 584.818 13.75ZM596.359 22.4545C595.712 22.4545 595.155 22.3712 594.689 22.2045C594.223 22.0417 593.835 21.8258 593.524 21.5568C593.217 21.2917 592.973 21.0076 592.791 20.7045L593.859 19.9545C593.981 20.1136 594.134 20.2955 594.32 20.5C594.505 20.7083 594.759 20.8883 595.081 21.0398C595.407 21.1951 595.833 21.2727 596.359 21.2727C597.064 21.2727 597.645 21.1023 598.104 20.7614C598.562 20.4205 598.791 19.8864 598.791 19.1591V17.3864H598.678C598.579 17.5455 598.439 17.7424 598.257 17.9773C598.079 18.2083 597.821 18.4148 597.484 18.5966C597.151 18.7746 596.7 18.8636 596.132 18.8636C595.428 18.8636 594.795 18.697 594.234 18.3636C593.678 18.0303 593.236 17.5455 592.911 16.9091C592.589 16.2727 592.428 15.5 592.428 14.5909C592.428 13.697 592.585 12.9186 592.899 12.2557C593.214 11.589 593.651 11.0739 594.212 10.7102C594.772 10.3428 595.42 10.1591 596.155 10.1591C596.723 10.1591 597.174 10.2538 597.507 10.4432C597.844 10.6288 598.102 10.8409 598.28 11.0795C598.462 11.3144 598.602 11.5076 598.7 11.6591H598.837V10.2727H600.132V19.25C600.132 20 599.962 20.6098 599.621 21.0795C599.284 21.553 598.829 21.8996 598.257 22.1193C597.689 22.3428 597.056 22.4545 596.359 22.4545ZM596.314 17.6591C596.852 17.6591 597.306 17.536 597.678 17.2898C598.049 17.0436 598.331 16.6894 598.524 16.2273C598.717 15.7652 598.814 15.2121 598.814 14.5682C598.814 13.9394 598.719 13.3845 598.53 12.9034C598.34 12.4223 598.06 12.0455 597.689 11.7727C597.318 11.5 596.859 11.3636 596.314 11.3636C595.746 11.3636 595.272 11.5076 594.893 11.7955C594.518 12.0833 594.236 12.4697 594.047 12.9545C593.861 13.4394 593.768 13.9773 593.768 14.5682C593.768 15.1742 593.863 15.7102 594.053 16.1761C594.246 16.6383 594.53 17.0019 594.905 17.267C595.284 17.5284 595.753 17.6591 596.314 17.6591ZM608.768 12.2273L607.564 12.5682C607.488 12.3674 607.376 12.1723 607.229 11.983C607.085 11.7898 606.888 11.6307 606.638 11.5057C606.388 11.3807 606.068 11.3182 605.678 11.3182C605.143 11.3182 604.698 11.4413 604.342 11.6875C603.99 11.9299 603.814 12.2386 603.814 12.6136C603.814 12.947 603.935 13.2102 604.178 13.4034C604.42 13.5966 604.799 13.7576 605.314 13.8864L606.609 14.2045C607.39 14.3939 607.971 14.6837 608.354 15.0739C608.736 15.4602 608.928 15.9583 608.928 16.5682C608.928 17.0682 608.784 17.5152 608.496 17.9091C608.212 18.303 607.814 18.6136 607.303 18.8409C606.791 19.0682 606.196 19.1818 605.518 19.1818C604.628 19.1818 603.892 18.9886 603.308 18.6023C602.725 18.2159 602.356 17.6515 602.2 16.9091L603.473 16.5909C603.594 17.0606 603.823 17.4129 604.161 17.6477C604.501 17.8826 604.946 18 605.496 18C606.121 18 606.617 17.8674 606.984 17.6023C607.356 17.3333 607.541 17.0114 607.541 16.6364C607.541 16.3333 607.435 16.0795 607.223 15.875C607.011 15.6667 606.685 15.5114 606.246 15.4091L604.791 15.0682C603.992 14.8788 603.405 14.5852 603.03 14.1875C602.659 13.786 602.473 13.2841 602.473 12.6818C602.473 12.1894 602.611 11.7538 602.888 11.375C603.168 10.9962 603.549 10.6989 604.03 10.483C604.515 10.267 605.064 10.1591 605.678 10.1591C606.541 10.1591 607.219 10.3485 607.712 10.7273C608.208 11.1061 608.56 11.6061 608.768 12.2273Z" fill="black"/>
<path d="M766.773 108.273C766.705 107.697 766.428 107.25 765.943 106.932C765.458 106.614 764.864 106.455 764.159 106.455C763.644 106.455 763.193 106.538 762.807 106.705C762.424 106.871 762.125 107.1 761.909 107.392C761.697 107.684 761.591 108.015 761.591 108.386C761.591 108.697 761.665 108.964 761.812 109.188C761.964 109.407 762.157 109.591 762.392 109.739C762.627 109.883 762.873 110.002 763.131 110.097C763.388 110.187 763.625 110.261 763.841 110.318L765.023 110.636C765.326 110.716 765.663 110.826 766.034 110.966C766.409 111.106 766.767 111.297 767.108 111.54C767.453 111.778 767.737 112.085 767.96 112.46C768.184 112.835 768.295 113.295 768.295 113.841C768.295 114.47 768.131 115.038 767.801 115.545C767.475 116.053 766.998 116.456 766.369 116.756C765.744 117.055 764.985 117.205 764.091 117.205C763.258 117.205 762.536 117.07 761.926 116.801C761.32 116.532 760.843 116.157 760.494 115.676C760.15 115.195 759.955 114.636 759.909 114H761.364C761.402 114.439 761.549 114.803 761.807 115.091C762.068 115.375 762.398 115.587 762.795 115.727C763.197 115.864 763.629 115.932 764.091 115.932C764.629 115.932 765.112 115.845 765.54 115.67C765.968 115.492 766.307 115.246 766.557 114.932C766.807 114.614 766.932 114.242 766.932 113.818C766.932 113.432 766.824 113.117 766.608 112.875C766.392 112.633 766.108 112.436 765.756 112.284C765.403 112.133 765.023 112 764.614 111.886L763.182 111.477C762.273 111.216 761.553 110.843 761.023 110.358C760.492 109.873 760.227 109.239 760.227 108.455C760.227 107.803 760.403 107.235 760.756 106.75C761.112 106.261 761.589 105.883 762.188 105.614C762.79 105.341 763.462 105.205 764.205 105.205C764.955 105.205 765.621 105.339 766.205 105.608C766.788 105.873 767.25 106.237 767.591 106.699C767.936 107.161 768.117 107.686 768.136 108.273H766.773ZM775.93 113.432V108.273H777.271V117H775.93V115.523H775.839C775.635 115.966 775.317 116.343 774.885 116.653C774.453 116.96 773.908 117.114 773.249 117.114C772.703 117.114 772.218 116.994 771.794 116.756C771.37 116.513 771.036 116.15 770.794 115.665C770.552 115.176 770.43 114.561 770.43 113.818V108.273H771.771V113.727C771.771 114.364 771.949 114.871 772.305 115.25C772.665 115.629 773.124 115.818 773.68 115.818C774.014 115.818 774.353 115.733 774.697 115.562C775.046 115.392 775.338 115.131 775.572 114.778C775.811 114.426 775.93 113.977 775.93 113.432ZM779.727 117V108.273H781.023V109.636H781.136C781.318 109.17 781.612 108.809 782.017 108.551C782.422 108.29 782.909 108.159 783.477 108.159C784.053 108.159 784.532 108.29 784.915 108.551C785.301 108.809 785.602 109.17 785.818 109.636H785.909C786.133 109.186 786.468 108.828 786.915 108.562C787.362 108.294 787.898 108.159 788.523 108.159C789.303 108.159 789.941 108.403 790.438 108.892C790.934 109.377 791.182 110.133 791.182 111.159V117H789.841V111.159C789.841 110.515 789.665 110.055 789.312 109.778C788.96 109.502 788.545 109.364 788.068 109.364C787.455 109.364 786.979 109.549 786.642 109.92C786.305 110.288 786.136 110.754 786.136 111.318V117H784.773V111.023C784.773 110.527 784.612 110.127 784.29 109.824C783.968 109.517 783.553 109.364 783.045 109.364C782.697 109.364 782.371 109.456 782.068 109.642C781.769 109.828 781.527 110.085 781.341 110.415C781.159 110.741 781.068 111.117 781.068 111.545V117H779.727ZM793.634 117V108.273H794.929V109.636H795.043C795.224 109.17 795.518 108.809 795.923 108.551C796.329 108.29 796.815 108.159 797.384 108.159C797.959 108.159 798.438 108.29 798.821 108.551C799.207 108.809 799.509 109.17 799.724 109.636H799.815C800.039 109.186 800.374 108.828 800.821 108.562C801.268 108.294 801.804 108.159 802.429 108.159C803.209 108.159 803.848 108.403 804.344 108.892C804.84 109.377 805.088 110.133 805.088 111.159V117H803.747V111.159C803.747 110.515 803.571 110.055 803.219 109.778C802.866 109.502 802.452 109.364 801.974 109.364C801.361 109.364 800.885 109.549 800.548 109.92C800.211 110.288 800.043 110.754 800.043 111.318V117H798.679V111.023C798.679 110.527 798.518 110.127 798.196 109.824C797.874 109.517 797.459 109.364 796.952 109.364C796.603 109.364 796.277 109.456 795.974 109.642C795.675 109.828 795.433 110.085 795.247 110.415C795.065 110.741 794.974 111.117 794.974 111.545V117H793.634ZM810.108 117.205C809.555 117.205 809.053 117.1 808.602 116.892C808.152 116.68 807.794 116.375 807.528 115.977C807.263 115.576 807.131 115.091 807.131 114.523C807.131 114.023 807.229 113.617 807.426 113.307C807.623 112.992 807.886 112.746 808.216 112.568C808.545 112.39 808.909 112.258 809.307 112.17C809.708 112.08 810.112 112.008 810.517 111.955C811.047 111.886 811.477 111.835 811.807 111.801C812.14 111.763 812.383 111.701 812.534 111.614C812.689 111.527 812.767 111.375 812.767 111.159V111.114C812.767 110.553 812.614 110.117 812.307 109.807C812.004 109.496 811.544 109.341 810.926 109.341C810.286 109.341 809.784 109.481 809.42 109.761C809.057 110.042 808.801 110.341 808.653 110.659L807.381 110.205C807.608 109.674 807.911 109.261 808.29 108.966C808.672 108.667 809.089 108.458 809.54 108.341C809.994 108.22 810.441 108.159 810.881 108.159C811.161 108.159 811.483 108.193 811.847 108.261C812.214 108.326 812.568 108.46 812.909 108.665C813.254 108.869 813.54 109.178 813.767 109.591C813.994 110.004 814.108 110.557 814.108 111.25V117H812.767V115.818H812.699C812.608 116.008 812.456 116.21 812.244 116.426C812.032 116.642 811.75 116.826 811.398 116.977C811.045 117.129 810.616 117.205 810.108 117.205ZM810.312 116C810.843 116 811.29 115.896 811.653 115.688C812.021 115.479 812.297 115.21 812.483 114.881C812.672 114.551 812.767 114.205 812.767 113.841V112.614C812.71 112.682 812.585 112.744 812.392 112.801C812.203 112.854 811.983 112.902 811.733 112.943C811.487 112.981 811.246 113.015 811.011 113.045C810.78 113.072 810.593 113.095 810.449 113.114C810.1 113.159 809.775 113.233 809.472 113.335C809.172 113.434 808.93 113.583 808.744 113.784C808.563 113.981 808.472 114.25 808.472 114.591C808.472 115.057 808.644 115.409 808.989 115.648C809.337 115.883 809.778 116 810.312 116ZM816.555 117V108.273H817.851V109.591H817.942C818.101 109.159 818.389 108.809 818.805 108.54C819.222 108.271 819.692 108.136 820.214 108.136C820.313 108.136 820.436 108.138 820.584 108.142C820.732 108.146 820.843 108.152 820.919 108.159V109.523C820.874 109.511 820.769 109.494 820.607 109.472C820.447 109.445 820.279 109.432 820.101 109.432C819.677 109.432 819.298 109.521 818.964 109.699C818.635 109.873 818.374 110.116 818.18 110.426C817.991 110.733 817.896 111.083 817.896 111.477V117H816.555ZM823.638 120.273C823.411 120.273 823.208 120.254 823.03 120.216C822.852 120.182 822.729 120.148 822.661 120.114L823.001 118.932C823.327 119.015 823.615 119.045 823.865 119.023C824.115 119 824.337 118.888 824.53 118.688C824.727 118.491 824.907 118.17 825.07 117.727L825.32 117.045L822.092 108.273H823.547L825.956 115.227H826.047L828.456 108.273H829.911L826.206 118.273C826.039 118.723 825.833 119.097 825.587 119.392C825.34 119.691 825.054 119.913 824.729 120.057C824.407 120.201 824.043 120.273 823.638 120.273Z" fill="black"/>
<path d="M949.818 3.36364V15H948.409V3.36364H949.818ZM961.871 3.36364V15H960.507L954.166 5.86364H954.053V15H952.643V3.36364H954.007L960.371 12.5227H960.484V3.36364H961.871ZM964.054 4.61364V3.36364H972.781V4.61364H969.122V15H967.713V4.61364H964.054ZM974.956 15V3.36364H981.979V4.61364H976.365V8.54545H981.615V9.79545H976.365V13.75H982.07V15H974.956ZM984.518 15V3.36364H988.45C989.359 3.36364 990.106 3.51894 990.689 3.82955C991.272 4.13636 991.704 4.55871 991.984 5.09659C992.265 5.63447 992.405 6.24621 992.405 6.93182C992.405 7.61742 992.265 8.22538 991.984 8.75568C991.704 9.28598 991.274 9.70265 990.695 10.0057C990.115 10.3049 989.375 10.4545 988.473 10.4545H985.291V9.18182H988.428C989.049 9.18182 989.549 9.09091 989.928 8.90909C990.31 8.72727 990.587 8.4697 990.757 8.13636C990.931 7.79924 991.018 7.39773 991.018 6.93182C991.018 6.46591 990.931 6.05871 990.757 5.71023C990.583 5.36174 990.304 5.0928 989.922 4.90341C989.539 4.71023 989.034 4.61364 988.405 4.61364H985.928V15H984.518ZM989.996 9.77273L992.859 15H991.223L988.405 9.77273H989.996ZM999.571 8.55682V9.80682H994.48V8.55682H999.571ZM1011.34 3.36364V15H1009.98L1003.63 5.86364H1003.52V15H1002.11V3.36364H1003.48L1009.84 12.5227H1009.95V3.36364H1011.34ZM1014.16 15V3.36364H1021.18V4.61364H1015.57V8.54545H1020.82V9.79545H1015.57V13.75H1021.27V15H1014.16ZM1023.09 4.61364V3.36364H1031.81V4.61364H1028.15V15H1026.74V4.61364H1023.09ZM1047.85 7H1046.44C1046.36 6.5947 1046.21 6.23864 1046 5.93182C1045.8 5.625 1045.55 5.36742 1045.25 5.15909C1044.96 4.94697 1044.64 4.78788 1044.28 4.68182C1043.93 4.57576 1043.56 4.52273 1043.17 4.52273C1042.46 4.52273 1041.83 4.70076 1041.25 5.05682C1040.69 5.41288 1040.23 5.9375 1039.9 6.63068C1039.56 7.32386 1039.4 8.17424 1039.4 9.18182C1039.4 10.1894 1039.56 11.0398 1039.9 11.733C1040.23 12.4261 1040.69 12.9508 1041.25 13.3068C1041.83 13.6629 1042.46 13.8409 1043.17 13.8409C1043.56 13.8409 1043.93 13.7879 1044.28 13.6818C1044.64 13.5758 1044.96 13.4186 1045.25 13.2102C1045.55 12.9981 1045.8 12.7386 1046 12.4318C1046.21 12.1212 1046.36 11.7652 1046.44 11.3636H1047.85C1047.74 11.9583 1047.55 12.4905 1047.27 12.9602C1046.99 13.4299 1046.64 13.8295 1046.23 14.1591C1045.81 14.4848 1045.34 14.733 1044.82 14.9034C1044.31 15.0739 1043.76 15.1591 1043.17 15.1591C1042.18 15.1591 1041.29 14.9167 1040.52 14.4318C1039.75 13.947 1039.14 13.2576 1038.7 12.3636C1038.25 11.4697 1038.03 10.4091 1038.03 9.18182C1038.03 7.95455 1038.25 6.89394 1038.7 6C1039.14 5.10606 1039.75 4.41667 1040.52 3.93182C1041.29 3.44697 1042.18 3.20455 1043.17 3.20455C1043.76 3.20455 1044.31 3.28977 1044.82 3.46023C1045.34 3.63068 1045.81 3.88068 1046.23 4.21023C1046.64 4.53598 1046.99 4.93371 1047.27 5.40341C1047.55 5.86932 1047.74 6.40151 1047.85 7ZM1051.29 3.36364V15H1049.95V3.36364H1051.29ZM1057.29 15.1818C1056.5 15.1818 1055.81 14.9943 1055.21 14.6193C1054.62 14.2443 1054.16 13.7197 1053.83 13.0455C1053.5 12.3712 1053.33 11.5833 1053.33 10.6818C1053.33 9.77273 1053.5 8.97917 1053.83 8.30114C1054.16 7.62311 1054.62 7.09659 1055.21 6.72159C1055.81 6.34659 1056.5 6.15909 1057.29 6.15909C1058.08 6.15909 1058.77 6.34659 1059.36 6.72159C1059.95 7.09659 1060.41 7.62311 1060.74 8.30114C1061.08 8.97917 1061.24 9.77273 1061.24 10.6818C1061.24 11.5833 1061.08 12.3712 1060.74 13.0455C1060.41 13.7197 1059.95 14.2443 1059.36 14.6193C1058.77 14.9943 1058.08 15.1818 1057.29 15.1818ZM1057.29 13.9773C1057.89 13.9773 1058.38 13.8239 1058.77 13.517C1059.15 13.2102 1059.44 12.8068 1059.62 12.3068C1059.81 11.8068 1059.9 11.2652 1059.9 10.6818C1059.9 10.0985 1059.81 9.55492 1059.62 9.05114C1059.44 8.54735 1059.15 8.14015 1058.77 7.82955C1058.38 7.51894 1057.89 7.36364 1057.29 7.36364C1056.69 7.36364 1056.2 7.51894 1055.81 7.82955C1055.42 8.14015 1055.14 8.54735 1054.95 9.05114C1054.77 9.55492 1054.67 10.0985 1054.67 10.6818C1054.67 11.2652 1054.77 11.8068 1054.95 12.3068C1055.14 12.8068 1055.42 13.2102 1055.81 13.517C1056.2 13.8239 1056.69 13.9773 1057.29 13.9773ZM1068.79 11.4318V6.27273H1070.13V15H1068.79V13.5227H1068.7C1068.49 13.9659 1068.18 14.3428 1067.74 14.6534C1067.31 14.9602 1066.77 15.1136 1066.11 15.1136C1065.56 15.1136 1065.08 14.9943 1064.65 14.7557C1064.23 14.5133 1063.9 14.1496 1063.65 13.6648C1063.41 13.1761 1063.29 12.5606 1063.29 11.8182V6.27273H1064.63V11.7273C1064.63 12.3636 1064.81 12.8712 1065.16 13.25C1065.52 13.6288 1065.98 13.8182 1066.54 13.8182C1066.87 13.8182 1067.21 13.733 1067.56 13.5625C1067.91 13.392 1068.2 13.1307 1068.43 12.7784C1068.67 12.4261 1068.79 11.9773 1068.79 11.4318ZM1075.88 15.1818C1075.15 15.1818 1074.51 14.9981 1073.96 14.6307C1073.4 14.2595 1072.96 13.7367 1072.65 13.0625C1072.33 12.3845 1072.18 11.5833 1072.18 10.6591C1072.18 9.74242 1072.33 8.94697 1072.65 8.27273C1072.96 7.59848 1073.4 7.07765 1073.96 6.71023C1074.52 6.3428 1075.17 6.15909 1075.9 6.15909C1076.47 6.15909 1076.92 6.25379 1077.25 6.44318C1077.58 6.62879 1077.84 6.84091 1078.01 7.07955C1078.19 7.31439 1078.33 7.50758 1078.43 7.65909H1078.54V3.36364H1079.88V15H1078.59V13.6591H1078.43C1078.33 13.8182 1078.19 14.0189 1078.01 14.2614C1077.83 14.5 1077.57 14.714 1077.23 14.9034C1076.89 15.089 1076.44 15.1818 1075.88 15.1818ZM1076.06 13.9773C1076.6 13.9773 1077.06 13.8371 1077.43 13.5568C1077.8 13.2727 1078.08 12.8807 1078.27 12.3807C1078.47 11.8769 1078.56 11.2955 1078.56 10.6364C1078.56 9.98485 1078.47 9.41477 1078.28 8.92614C1078.09 8.43371 1077.81 8.05114 1077.44 7.77841C1077.07 7.50189 1076.61 7.36364 1076.06 7.36364C1075.5 7.36364 1075.02 7.50947 1074.64 7.80114C1074.27 8.08902 1073.99 8.48106 1073.8 8.97727C1073.61 9.4697 1073.52 10.0227 1073.52 10.6364C1073.52 11.2576 1073.61 11.822 1073.8 12.3295C1074 12.8333 1074.28 13.2348 1074.65 13.5341C1075.03 13.8295 1075.5 13.9773 1076.06 13.9773ZM1093.57 6.27273C1093.5 5.69697 1093.22 5.25 1092.74 4.93182C1092.26 4.61364 1091.66 4.45455 1090.96 4.45455C1090.44 4.45455 1089.99 4.53788 1089.6 4.70455C1089.22 4.87121 1088.92 5.10038 1088.71 5.39205C1088.49 5.68371 1088.39 6.01515 1088.39 6.38636C1088.39 6.69697 1088.46 6.96401 1088.61 7.1875C1088.76 7.4072 1088.95 7.59091 1089.19 7.73864C1089.42 7.88258 1089.67 8.00189 1089.93 8.09659C1090.19 8.1875 1090.42 8.26136 1090.64 8.31818L1091.82 8.63636C1092.12 8.71591 1092.46 8.82576 1092.83 8.96591C1093.21 9.10606 1093.56 9.29735 1093.9 9.53977C1094.25 9.77841 1094.53 10.0852 1094.76 10.4602C1094.98 10.8352 1095.09 11.2955 1095.09 11.8409C1095.09 12.4697 1094.93 13.0379 1094.6 13.5455C1094.27 14.053 1093.79 14.4564 1093.17 14.7557C1092.54 15.0549 1091.78 15.2045 1090.89 15.2045C1090.05 15.2045 1089.33 15.0701 1088.72 14.8011C1088.12 14.5322 1087.64 14.1572 1087.29 13.6761C1086.95 13.1951 1086.75 12.6364 1086.71 12H1088.16C1088.2 12.4394 1088.35 12.803 1088.6 13.0909C1088.87 13.375 1089.19 13.5871 1089.59 13.7273C1089.99 13.8636 1090.43 13.9318 1090.89 13.9318C1091.43 13.9318 1091.91 13.8447 1092.34 13.6705C1092.76 13.4924 1093.1 13.2462 1093.35 12.9318C1093.6 12.6136 1093.73 12.2424 1093.73 11.8182C1093.73 11.4318 1093.62 11.1174 1093.4 10.875C1093.19 10.6326 1092.9 10.4356 1092.55 10.2841C1092.2 10.1326 1091.82 10 1091.41 9.88636L1089.98 9.47727C1089.07 9.21591 1088.35 8.8428 1087.82 8.35795C1087.29 7.87311 1087.02 7.23864 1087.02 6.45455C1087.02 5.80303 1087.2 5.23485 1087.55 4.75C1087.91 4.26136 1088.39 3.88258 1088.98 3.61364C1089.59 3.34091 1090.26 3.20455 1091 3.20455C1091.75 3.20455 1092.42 3.33901 1093 3.60795C1093.58 3.87311 1094.05 4.23674 1094.39 4.69886C1094.73 5.16098 1094.91 5.68561 1094.93 6.27273H1093.57ZM1100.89 15.1818C1100.05 15.1818 1099.32 14.9962 1098.71 14.625C1098.1 14.25 1097.64 13.7273 1097.31 13.0568C1096.98 12.3826 1096.82 11.5985 1096.82 10.7045C1096.82 9.81061 1096.98 9.02273 1097.31 8.34091C1097.64 7.6553 1098.09 7.12121 1098.68 6.73864C1099.27 6.35227 1099.96 6.15909 1100.75 6.15909C1101.2 6.15909 1101.65 6.23485 1102.1 6.38636C1102.54 6.53788 1102.94 6.78409 1103.31 7.125C1103.67 7.46212 1103.96 7.90909 1104.18 8.46591C1104.39 9.02273 1104.5 9.70833 1104.5 10.5227V11.0909H1097.77V9.93182H1103.14C1103.14 9.43939 1103.04 9 1102.84 8.61364C1102.65 8.22727 1102.37 7.92235 1102.01 7.69886C1101.66 7.47538 1101.23 7.36364 1100.75 7.36364C1100.22 7.36364 1099.75 7.49621 1099.36 7.76136C1098.98 8.02273 1098.68 8.36364 1098.47 8.78409C1098.26 9.20455 1098.16 9.6553 1098.16 10.1364V10.9091C1098.16 11.5682 1098.27 12.1269 1098.5 12.5852C1098.73 13.0398 1099.05 13.3864 1099.46 13.625C1099.87 13.8598 1100.34 13.9773 1100.89 13.9773C1101.24 13.9773 1101.56 13.928 1101.84 13.8295C1102.13 13.7273 1102.38 13.5758 1102.59 13.375C1102.79 13.1705 1102.95 12.9167 1103.07 12.6136L1104.36 12.9773C1104.23 13.4167 1104 13.803 1103.68 14.1364C1103.35 14.4659 1102.96 14.7235 1102.48 14.9091C1102.01 15.0909 1101.48 15.1818 1100.89 15.1818ZM1106.54 15V6.27273H1107.84V7.59091H1107.93C1108.09 7.15909 1108.37 6.80871 1108.79 6.53977C1109.21 6.27083 1109.68 6.13636 1110.2 6.13636C1110.3 6.13636 1110.42 6.13826 1110.57 6.14205C1110.72 6.14583 1110.83 6.15152 1110.9 6.15909V7.52273C1110.86 7.51136 1110.75 7.49432 1110.59 7.47159C1110.43 7.44508 1110.26 7.43182 1110.09 7.43182C1109.66 7.43182 1109.28 7.52083 1108.95 7.69886C1108.62 7.87311 1108.36 8.11553 1108.16 8.42614C1107.98 8.73295 1107.88 9.08333 1107.88 9.47727V15H1106.54ZM1119.89 6.27273L1116.67 15H1115.3L1112.08 6.27273H1113.53L1115.94 13.2273H1116.03L1118.44 6.27273H1119.89ZM1121.66 15V6.27273H1123.01V15H1121.66ZM1122.35 4.81818C1122.09 4.81818 1121.86 4.72917 1121.67 4.55114C1121.48 4.37311 1121.39 4.15909 1121.39 3.90909C1121.39 3.65909 1121.48 3.44508 1121.67 3.26705C1121.86 3.08902 1122.09 3 1122.35 3C1122.61 3 1122.83 3.08902 1123.02 3.26705C1123.21 3.44508 1123.3 3.65909 1123.3 3.90909C1123.3 4.15909 1123.21 4.37311 1123.02 4.55114C1122.83 4.72917 1122.61 4.81818 1122.35 4.81818ZM1129.01 15.1818C1128.19 15.1818 1127.48 14.9886 1126.89 14.6023C1126.3 14.2159 1125.85 13.6837 1125.53 13.0057C1125.21 12.3277 1125.05 11.553 1125.05 10.6818C1125.05 9.79545 1125.22 9.01326 1125.54 8.33523C1125.87 7.65341 1126.33 7.12121 1126.92 6.73864C1127.51 6.35227 1128.2 6.15909 1128.98 6.15909C1129.6 6.15909 1130.15 6.27273 1130.64 6.5C1131.14 6.72727 1131.54 7.04545 1131.85 7.45455C1132.17 7.86364 1132.36 8.34091 1132.44 8.88636H1131.1C1131 8.48864 1130.77 8.13636 1130.42 7.82955C1130.07 7.51894 1129.6 7.36364 1129.01 7.36364C1128.48 7.36364 1128.03 7.5 1127.63 7.77273C1127.24 8.04167 1126.94 8.42235 1126.72 8.91477C1126.5 9.40341 1126.39 9.97727 1126.39 10.6364C1126.39 11.3106 1126.5 11.8977 1126.71 12.3977C1126.93 12.8977 1127.23 13.286 1127.62 13.5625C1128.01 13.839 1128.48 13.9773 1129.01 13.9773C1129.36 13.9773 1129.67 13.9167 1129.96 13.7955C1130.24 13.6742 1130.48 13.5 1130.68 13.2727C1130.87 13.0455 1131.01 12.7727 1131.1 12.4545H1132.44C1132.36 12.9697 1132.18 13.4337 1131.88 13.8466C1131.58 14.2557 1131.19 14.5814 1130.7 14.8239C1130.22 15.0625 1129.65 15.1818 1129.01 15.1818ZM1138.06 15.1818C1137.22 15.1818 1136.49 14.9962 1135.88 14.625C1135.28 14.25 1134.81 13.7273 1134.48 13.0568C1134.15 12.3826 1133.99 11.5985 1133.99 10.7045C1133.99 9.81061 1134.15 9.02273 1134.48 8.34091C1134.81 7.6553 1135.27 7.12121 1135.85 6.73864C1136.44 6.35227 1137.13 6.15909 1137.92 6.15909C1138.38 6.15909 1138.83 6.23485 1139.27 6.38636C1139.71 6.53788 1140.12 6.78409 1140.48 7.125C1140.84 7.46212 1141.13 7.90909 1141.35 8.46591C1141.56 9.02273 1141.67 9.70833 1141.67 10.5227V11.0909H1134.94V9.93182H1140.31C1140.31 9.43939 1140.21 9 1140.01 8.61364C1139.82 8.22727 1139.54 7.92235 1139.18 7.69886C1138.83 7.47538 1138.41 7.36364 1137.92 7.36364C1137.39 7.36364 1136.93 7.49621 1136.54 7.76136C1136.15 8.02273 1135.85 8.36364 1135.64 8.78409C1135.44 9.20455 1135.33 9.6553 1135.33 10.1364V10.9091C1135.33 11.5682 1135.44 12.1269 1135.67 12.5852C1135.9 13.0398 1136.22 13.3864 1136.63 13.625C1137.04 13.8598 1137.52 13.9773 1138.06 13.9773C1138.41 13.9773 1138.73 13.928 1139.01 13.8295C1139.3 13.7273 1139.55 13.5758 1139.76 13.375C1139.97 13.1705 1140.13 12.9167 1140.24 12.6136L1141.54 12.9773C1141.4 13.4167 1141.17 13.803 1140.85 14.1364C1140.53 14.4659 1140.13 14.7235 1139.65 14.9091C1139.18 15.0909 1138.65 15.1818 1138.06 15.1818Z" fill="black"/>
</svg>
