<svg width="75" height="38" viewBox="0 0 75 38" fill="none" xmlns="http://www.w3.org/2000/svg">
<rect width="75" height="38" rx="12" fill="white"/>
<path d="M48.0703 13.625V25H46.5547L40.8281 16.2266V25H39.3203V13.625H40.8281L46.5781 22.4219V13.625H48.0703ZM57.9688 23.7734V25H51.9453V23.7734H57.9688ZM52.25 13.625V25H50.7422V13.625H52.25ZM57.1719 18.5156V19.7422H51.9453V18.5156H57.1719ZM57.8906 13.625V14.8594H51.9453V13.625H57.8906ZM64.1953 13.625V25H62.7109V13.625H64.1953ZM67.8516 13.625V14.8594H59.0625V13.625H67.8516Z" fill="black"/>
<path fill-rule="evenodd" clip-rule="evenodd" d="M19.3701 30.963C26.0562 30.963 31.4764 25.712 31.4764 19.2346C31.4764 16.0332 30.1523 13.1313 28.0058 11.0149L25.8588 12.3247L30.3562 19.2438L29.3107 19.8816L24.8134 12.9624L22.2438 14.53L21.6963 13.6878L27.2287 10.3128C25.1139 8.56285 22.3694 7.50623 19.3701 7.50623C12.684 7.50623 7.26379 12.7572 7.26379 19.2346C7.26379 22.9664 9.06289 26.2912 11.8667 28.4392L7.7918 22.1701L8.85376 21.5222L16.8049 25.054L12.9035 19.0517L13.9545 18.4106L18.9993 26.172L17.9318 26.8232L10.0075 23.2973L13.8985 29.2836L13.5281 29.5096C15.2603 30.4359 17.2516 30.963 19.3701 30.963ZM25.9708 21.9191L25.4268 21.0822L21.3991 23.5393L19.6112 20.7887L23.0777 18.674L22.5337 17.8371L19.0672 19.9518L17.4457 17.457L21.4184 15.0335L20.871 14.1913L15.8363 17.2626L20.8811 25.024L25.9708 21.9191Z" fill="url(#paint0_linear_208_2)"/>
<defs>
<linearGradient id="paint0_linear_208_2" x1="19.3701" y1="7.50623" x2="11.8606" y2="58.5954" gradientUnits="userSpaceOnUse">
<stop stop-color="#6B69F1"/>
<stop offset="1" stop-color="#6B69F1" stop-opacity="0"/>
</linearGradient>
</defs>
</svg>
